<svg version="1.1" id="Layer_1" xmlns="http://www.w3.org/2000/svg" xmlns:xlink="http://www.w3.org/1999/xlink" x="0px" y="0px"
	 width="100%" viewBox="0 0 500 500" enable-background="new 0 0 500 500" xml:space="preserve">
<path fill="#000000" opacity="1.000000" stroke="none" 
	d="
M235.000000,501.000000 
	C156.666687,501.000000 78.833374,501.000000 1.000042,501.000000 
	C1.000028,334.333405 1.000028,167.666779 1.000014,1.000131 
	C167.666565,1.000087 334.333130,1.000087 500.999756,1.000044 
	C500.999847,167.666519 500.999847,334.333038 500.999939,500.999786 
	C412.500000,501.000000 324.000000,501.000000 235.000000,501.000000 
M219.008713,285.990417 
	C219.008713,285.990417 219.077423,285.989380 218.953140,285.440491 
	C218.638702,285.261414 218.324265,285.082336 218.013412,284.981079 
	C218.013412,284.981079 218.091217,284.976990 217.906525,284.452484 
	C217.579437,284.369476 217.252365,284.286499 216.544983,284.072418 
	C216.544983,284.072418 216.150558,283.993530 215.952011,283.415466 
	C215.592117,283.337952 215.232224,283.260437 214.499054,283.083893 
	C214.499054,283.083893 214.121521,283.002716 213.945190,282.422821 
	C213.588440,282.337738 213.231674,282.252625 212.503632,282.061432 
	C212.503632,282.061432 212.122711,281.998260 211.947845,281.462402 
	C211.631866,281.285278 211.315887,281.108154 211.001572,280.997894 
	C211.001572,280.997894 211.067688,280.987885 210.890503,280.480621 
	C210.575623,280.393005 210.260742,280.305420 209.553894,280.071350 
	C209.553894,280.071350 209.141891,279.998138 208.951447,279.424500 
	C208.596512,279.333557 208.241577,279.242584 207.521286,279.042664 
	C207.521286,279.042664 207.143433,278.991882 206.937820,278.442871 
	C206.594193,278.357849 206.250549,278.272827 205.288712,277.855621 
	C193.445175,270.907471 181.565689,264.019348 169.784821,256.966522 
	C167.041595,255.324234 164.633591,253.122025 162.678741,250.801605 
	C179.668594,241.119217 196.646576,231.415924 213.654236,221.764908 
	C220.244629,218.025192 225.913971,213.106186 228.739792,206.123260 
	C233.520966,194.308395 231.777786,184.626114 221.751205,174.417496 
	C213.602203,166.120560 199.876831,164.587891 190.607300,169.431122 
	C175.814468,177.160202 161.644348,186.079315 147.193756,194.465652 
	C130.760559,204.002579 114.308487,213.507019 97.277176,223.398010 
	C86.554565,227.952774 78.579582,234.646179 76.329269,247.027557 
	C74.504120,257.069733 79.603065,269.428650 86.543961,273.677032 
	C104.744377,284.817078 123.387558,295.233368 141.846619,305.951324 
	C155.110596,313.652893 168.474838,321.190643 181.574036,329.163452 
	C188.629822,333.457916 195.821411,337.325775 204.200851,336.835327 
	C214.725876,336.219299 221.675705,329.667816 227.712936,320.835785 
	C232.232147,315.482605 231.713181,308.900238 230.657608,302.972076 
	C229.506821,296.509186 226.194214,290.537506 220.000336,287.002380 
	C220.000336,287.002380 220.060242,286.997589 219.919250,286.469788 
	C219.617065,286.287140 219.314880,286.104492 219.008713,285.990417 
M403.777161,279.999939 
	C409.896210,278.176453 415.248688,275.226715 419.391937,270.170410 
	C431.016235,255.984436 429.099365,240.585831 415.584747,230.210892 
	C403.991913,221.311295 390.502106,214.863922 377.770386,207.471237 
	C360.734955,197.579605 343.645203,187.780670 326.528839,178.029556 
	C320.431122,174.555695 314.510590,170.136795 307.913910,168.362686 
	C302.075348,166.792480 294.730072,166.599106 289.251404,168.795120 
	C277.825958,173.374786 271.653992,182.507828 271.777588,195.606506 
	C271.868286,205.218948 275.840424,212.417725 283.102264,218.022263 
	C286.166321,220.387024 289.802399,222.018005 293.205566,223.934372 
	C299.845795,227.673492 306.610748,231.203766 313.130981,235.140289 
	C322.194336,240.612183 331.080200,246.378098 339.784912,252.683975 
	C334.306580,255.848221 328.856842,259.063232 323.343994,262.166229 
	C311.493011,268.836761 299.454773,275.191345 287.794434,282.177948 
	C280.182953,286.738586 273.544006,292.722900 272.090088,302.134003 
	C270.193604,314.409912 274.202515,324.926697 284.610626,331.669495 
	C289.340637,334.733734 295.933044,336.870056 301.391693,336.356354 
	C307.817810,335.751617 314.303650,332.479431 320.113373,329.208862 
	C342.909912,316.375519 365.480774,303.139343 388.062958,289.928802 
	C393.202759,286.921997 398.052338,283.419098 403.777161,279.999939 
z"/>
<path fill="#139C58" opacity="1.000000" stroke="none" 
	d="
M340.042023,252.018143 
	C331.080200,246.378098 322.194336,240.612183 313.130981,235.140289 
	C306.610748,231.203766 299.845795,227.673492 293.205566,223.934372 
	C289.802399,222.018005 286.166321,220.387024 283.102264,218.022263 
	C275.840424,212.417725 271.868286,205.218948 271.777588,195.606506 
	C271.653992,182.507828 277.825958,173.374786 289.251404,168.795120 
	C294.730072,166.599106 302.075348,166.792480 307.913910,168.362686 
	C314.510590,170.136795 320.431122,174.555695 326.528839,178.029556 
	C343.645203,187.780670 360.734955,197.579605 377.770386,207.471237 
	C390.502106,214.863922 403.991913,221.311295 415.584747,230.210892 
	C429.099365,240.585831 431.016235,255.984436 419.391937,270.170410 
	C415.248688,275.226715 409.896210,278.176453 403.024323,279.901733 
	C395.017487,279.152832 387.942719,278.332306 381.422272,274.327545 
	C369.962219,267.288849 358.213440,260.715454 346.500031,254.098694 
	C344.571106,253.009064 342.205719,252.692154 340.042023,252.018143 
z"/>
<path fill="#4486F2" opacity="1.000000" stroke="none" 
	d="
M162.071335,251.177444 
	C164.633591,253.122025 167.041595,255.324234 169.784821,256.966522 
	C181.565689,264.019348 193.445175,270.907471 205.781509,278.189941 
	C206.531494,278.740570 206.821198,278.896454 207.143433,278.991882 
	C207.143433,278.991882 207.521286,279.042664 207.893250,279.268341 
	C208.557449,279.662079 208.849670,279.830109 209.141891,279.998138 
	C209.141891,279.998138 209.553894,280.071350 209.915817,280.303467 
	C210.509705,280.741150 210.773026,280.891907 211.067688,280.987885 
	C211.067688,280.987885 211.001572,280.997894 211.148651,281.181030 
	C211.571411,281.575531 211.847061,281.786896 212.122711,281.998260 
	C212.122711,281.998260 212.503632,282.061432 212.875977,282.285522 
	C213.539398,282.673981 213.830460,282.838348 214.121521,283.002716 
	C214.121521,283.002716 214.499054,283.083893 214.875809,283.304749 
	C215.551895,283.681580 215.851227,283.837555 216.150558,283.993530 
	C216.150558,283.993530 216.544983,284.072418 216.912033,284.293793 
	C217.521881,284.718231 217.792587,284.872192 218.091217,284.976990 
	C218.091217,284.976990 218.013412,284.981079 218.147766,285.161652 
	C218.547211,285.557953 218.812317,285.773651 219.077423,285.989380 
	C219.077423,285.989380 219.008713,285.990417 219.140991,286.175385 
	C219.535614,286.572754 219.797928,286.785187 220.060242,286.997589 
	C220.060242,286.997589 220.000336,287.002380 220.075516,287.319519 
	C220.716827,288.633179 221.113403,289.789581 221.877350,290.599548 
	C226.003571,294.974213 228.676788,299.882690 228.169159,306.125427 
	C227.762177,311.130524 227.408783,316.139923 227.031616,321.147430 
	C221.675705,329.667816 214.725876,336.219299 204.200851,336.835327 
	C195.821411,337.325775 188.629822,333.457916 181.574036,329.163452 
	C168.474838,321.190643 155.110596,313.652893 141.846619,305.951324 
	C123.387558,295.233368 104.744377,284.817078 86.543961,273.677032 
	C79.603065,269.428650 74.504120,257.069733 76.329269,247.027557 
	C78.579582,234.646179 86.554565,227.952774 97.904434,223.467224 
	C108.417305,222.552124 116.993004,225.852737 125.163498,231.145477 
	C131.406082,235.189331 137.968491,238.759857 144.514557,242.308685 
	C150.276123,245.432205 156.212280,248.233719 162.071335,251.177444 
z"/>
<path fill="#E64438" opacity="1.000000" stroke="none" 
	d="
M162.375031,250.989532 
	C156.212280,248.233719 150.276123,245.432205 144.514557,242.308685 
	C137.968491,238.759857 131.406082,235.189331 125.163498,231.145477 
	C116.993004,225.852737 108.417305,222.552124 98.198151,223.281006 
	C114.308487,213.507019 130.760559,204.002579 147.193756,194.465652 
	C161.644348,186.079315 175.814468,177.160202 190.607300,169.431122 
	C199.876831,164.587891 213.602203,166.120560 221.751205,174.417496 
	C231.777786,184.626114 233.520966,194.308395 228.739792,206.123260 
	C225.913971,213.106186 220.244629,218.025192 213.654236,221.764908 
	C196.646576,231.415924 179.668594,241.119217 162.375031,250.989532 
z"/>
<path fill="#F7BB09" opacity="1.000000" stroke="none" 
	d="
M339.913452,252.351059 
	C342.205719,252.692154 344.571106,253.009064 346.500031,254.098694 
	C358.213440,260.715454 369.962219,267.288849 381.422272,274.327545 
	C387.942719,278.332306 395.017487,279.152832 402.653503,279.974060 
	C398.052338,283.419098 393.202759,286.921997 388.062958,289.928802 
	C365.480774,303.139343 342.909912,316.375519 320.113373,329.208862 
	C314.303650,332.479431 307.817810,335.751617 301.391693,336.356354 
	C295.933044,336.870056 289.340637,334.733734 284.610626,331.669495 
	C274.202515,324.926697 270.193604,314.409912 272.090088,302.134003 
	C273.544006,292.722900 280.182953,286.738586 287.794434,282.177948 
	C299.454773,275.191345 311.493011,268.836761 323.343994,262.166229 
	C328.856842,259.063232 334.306580,255.848221 339.913452,252.351059 
z"/>
<path fill="#5688D5" opacity="1.000000" stroke="none" 
	d="
M227.372284,320.991608 
	C227.408783,316.139923 227.762177,311.130524 228.169159,306.125427 
	C228.676788,299.882690 226.003571,294.974213 221.877350,290.599548 
	C221.113403,289.789581 220.716827,288.633179 220.084320,287.290802 
	C226.194214,290.537506 229.506821,296.509186 230.657608,302.972076 
	C231.713181,308.900238 232.232147,315.482605 227.372284,320.991608 
z"/>
<path fill="#5688D5" opacity="1.000000" stroke="none" 
	d="
M207.040619,278.717377 
	C206.821198,278.896454 206.531494,278.740570 206.090607,278.356018 
	C206.250549,278.272827 206.594193,278.357849 207.040619,278.717377 
z"/>
<path fill="#5688D5" opacity="1.000000" stroke="none" 
	d="
M209.046661,279.711304 
	C208.849670,279.830109 208.557449,279.662079 208.075928,279.322815 
	C208.241577,279.242584 208.596512,279.333557 209.046661,279.711304 
z"/>
<path fill="#5688D5" opacity="1.000000" stroke="none" 
	d="
M210.979095,280.734253 
	C210.773026,280.891907 210.509705,280.741150 210.111801,280.376709 
	C210.260742,280.305420 210.575623,280.393005 210.979095,280.734253 
z"/>
<path fill="#5688D5" opacity="1.000000" stroke="none" 
	d="
M212.035278,281.730347 
	C211.847061,281.786896 211.571411,281.575531 211.147827,281.147583 
	C211.315887,281.108154 211.631866,281.285278 212.035278,281.730347 
z"/>
<path fill="#5688D5" opacity="1.000000" stroke="none" 
	d="
M214.033356,282.712769 
	C213.830460,282.838348 213.539398,282.673981 213.061630,282.338562 
	C213.231674,282.252625 213.588440,282.337738 214.033356,282.712769 
z"/>
<path fill="#5688D5" opacity="1.000000" stroke="none" 
	d="
M216.051285,283.704498 
	C215.851227,283.837555 215.551895,283.681580 215.062439,283.354248 
	C215.232224,283.260437 215.592117,283.337952 216.051285,283.704498 
z"/>
<path fill="#5688D5" opacity="1.000000" stroke="none" 
	d="
M217.998871,284.714722 
	C217.792587,284.872192 217.521881,284.718231 217.102173,284.359344 
	C217.252365,284.286499 217.579437,284.369476 217.998871,284.714722 
z"/>
<path fill="#5688D5" opacity="1.000000" stroke="none" 
	d="
M219.015289,285.714935 
	C218.812317,285.773651 218.547211,285.557953 218.145966,285.122742 
	C218.324265,285.082336 218.638702,285.261414 219.015289,285.714935 
z"/>
<path fill="#5688D5" opacity="1.000000" stroke="none" 
	d="
M219.989746,286.733704 
	C219.797928,286.785187 219.535614,286.572754 219.142990,286.141083 
	C219.314880,286.104492 219.617065,286.287140 219.989746,286.733704 
z"/>
</svg>