<?xml version="1.0" encoding="UTF-8"?>
<!DOCTYPE svg PUBLIC "-//W3C//DTD SVG 1.1//EN" "http://www.w3.org/Graphics/SVG/1.1/DTD/svg11.dtd">
<svg xmlns="http://www.w3.org/2000/svg" version="1.1" width="500px" height="500px" style="shape-rendering:geometricPrecision; text-rendering:geometricPrecision; image-rendering:optimizeQuality; fill-rule:evenodd; clip-rule:evenodd" xmlns:xlink="http://www.w3.org/1999/xlink">
<g><path style="opacity:0.884" fill="#e18580" d="M 193.5,166.5 C 195.978,165.836 198.645,165.503 201.5,165.5C 205.469,165.294 209.135,165.961 212.5,167.5C 206.19,166.81 199.857,166.476 193.5,166.5 Z"/></g>
<g><path style="opacity:0.408" fill="#9cd8be" d="M 293.5,165.5 C 290.855,167.31 287.855,168.31 284.5,168.5C 287.084,166.528 290.084,165.528 293.5,165.5 Z"/></g>
<g><path style="opacity:0.82" fill="#e4958b" d="M 193.5,166.5 C 191.297,168.1 188.964,169.433 186.5,170.5C 185.833,170.5 185.167,170.5 184.5,170.5C 186.835,167.835 189.835,166.502 193.5,166.5 Z"/></g>
<g><path style="opacity:1" fill="#e05245" d="M 193.5,166.5 C 199.857,166.476 206.19,166.81 212.5,167.5C 214.153,167.66 215.486,168.326 216.5,169.5C 216.5,170.167 216.5,170.833 216.5,171.5C 208.737,168.804 200.737,167.971 192.5,169C 193.624,169.249 194.624,169.749 195.5,170.5C 194.833,170.833 194.167,171.167 193.5,171.5C 191.218,170.777 188.884,170.443 186.5,170.5C 188.964,169.433 191.297,168.1 193.5,166.5 Z"/></g>
<g><path style="opacity:0.247" fill="#c8f0de" d="M 303.5,165.5 C 308.232,165.627 312.232,167.293 315.5,170.5C 311.424,168.814 307.424,167.147 303.5,165.5 Z"/></g>
<g><path style="opacity:1" fill="#1f985c" d="M 293.5,165.5 C 296.833,165.5 300.167,165.5 303.5,165.5C 307.424,167.147 311.424,168.814 315.5,170.5C 315.833,171.167 316.167,171.833 316.5,172.5C 308.867,168.311 300.867,167.478 292.5,170C 294.285,171.163 296.285,171.83 298.5,172C 296.939,172.318 295.772,173.151 295,174.5C 293.333,173.167 291.667,173.167 290,174.5C 289,173.5 288,172.5 287,171.5C 286.667,172.167 286.333,172.833 286,173.5C 284.644,172.62 283.144,172.286 281.5,172.5C 282.5,171.167 283.5,169.833 284.5,168.5C 287.855,168.31 290.855,167.31 293.5,165.5 Z"/></g>
<g><path style="opacity:0.369" fill="#f1bcb4" d="M 216.5,169.5 C 218.754,170.124 220.421,171.457 221.5,173.5C 219.938,173.267 218.605,172.6 217.5,171.5C 217.167,171.5 216.833,171.5 216.5,171.5C 216.5,170.833 216.5,170.167 216.5,169.5 Z"/></g>
<g><path style="opacity:0.251" fill="#c0efd8" d="M 315.5,170.5 C 317.027,170.427 318.027,171.094 318.5,172.5C 317.833,172.5 317.167,172.5 316.5,172.5C 316.167,171.833 315.833,171.167 315.5,170.5 Z"/></g>
<g><path style="opacity:0.259" fill="#c4ebd7" d="M 284.5,168.5 C 283.5,169.833 282.5,171.167 281.5,172.5C 279.938,172.733 278.605,173.4 277.5,174.5C 277.414,173.504 277.748,172.671 278.5,172C 280.405,170.579 282.405,169.412 284.5,168.5 Z"/></g>
<g><path style="opacity:0.306" fill="#eeaba5" d="M 182.5,171.5 C 181.514,173.408 179.848,174.408 177.5,174.5C 178.659,172.75 180.326,171.75 182.5,171.5 Z"/></g>
<g><path style="opacity:1" fill="#e94235" d="M 216.5,171.5 C 216.833,171.5 217.167,171.5 217.5,171.5C 218.06,173.801 218.56,176.134 219,178.5C 222.08,179.199 224.414,180.866 226,183.5C 225.5,188.678 225.667,193.845 226.5,199C 225.725,201.822 225.058,204.656 224.5,207.5C 223.89,208.391 223.557,209.391 223.5,210.5C 222.5,212.833 220.833,214.5 218.5,215.5C 215.86,216.82 213.193,218.153 210.5,219.5C 206.789,219.614 203.455,220.614 200.5,222.5C 200.5,223.5 200.5,224.5 200.5,225.5C 196.662,225.913 193.662,227.58 191.5,230.5C 191.5,230.833 191.5,231.167 191.5,231.5C 189.973,231.427 188.973,232.094 188.5,233.5C 188.167,233.5 187.833,233.5 187.5,233.5C 184.422,233.587 182.089,234.92 180.5,237.5C 180.167,238.5 179.5,239.167 178.5,239.5C 173.64,238.916 169.973,240.582 167.5,244.5C 165.223,245.449 163.223,246.782 161.5,248.5C 159.435,248.483 157.435,248.15 155.5,247.5C 155.027,246.094 154.027,245.427 152.5,245.5C 149.807,244.153 147.14,242.82 144.5,241.5C 142.833,240.167 141.167,238.833 139.5,237.5C 136.09,235.132 132.424,233.132 128.5,231.5C 127.847,230.193 127.18,228.86 126.5,227.5C 124.034,226.877 121.701,226.043 119.5,225C 120.833,224.667 122.167,224.333 123.5,224C 119.49,223.499 115.49,222.999 111.5,222.5C 109.621,221.659 107.621,221.325 105.5,221.5C 104.737,220.732 103.737,220.232 102.5,220C 104.041,218.629 105.375,217.129 106.5,215.5C 108.027,215.573 109.027,214.906 109.5,213.5C 114.271,213.285 117.938,211.285 120.5,207.5C 125.729,207.221 129.729,204.887 132.5,200.5C 136.431,199.868 139.765,198.201 142.5,195.5C 146.241,196.401 148.241,195.068 148.5,191.5C 150.027,191.573 151.027,190.906 151.5,189.5C 151.833,189.5 152.167,189.5 152.5,189.5C 153.15,189.804 153.817,190.137 154.5,190.5C 155.953,188.815 157.286,187.149 158.5,185.5C 161.857,185.784 164.191,184.451 165.5,181.5C 167.848,181.408 169.514,180.408 170.5,178.5C 172.027,178.573 173.027,177.906 173.5,176.5C 174.605,175.4 175.938,174.733 177.5,174.5C 179.848,174.408 181.514,173.408 182.5,171.5C 182.842,170.662 183.508,170.328 184.5,170.5C 185.167,170.5 185.833,170.5 186.5,170.5C 188.884,170.443 191.218,170.777 193.5,171.5C 194.167,171.167 194.833,170.833 195.5,170.5C 194.624,169.749 193.624,169.249 192.5,169C 200.737,167.971 208.737,168.804 216.5,171.5 Z"/></g>
<g><path style="opacity:1" fill="#119c57" d="M 316.5,172.5 C 317.167,172.5 317.833,172.5 318.5,172.5C 318.833,172.5 319.167,172.5 319.5,172.5C 319.5,173.167 319.5,173.833 319.5,174.5C 321.851,176.532 324.517,178.365 327.5,180C 329.909,181.707 332.575,182.54 335.5,182.5C 336.68,184.913 338.68,185.913 341.5,185.5C 342.659,187.25 344.326,188.25 346.5,188.5C 347.167,188.5 347.5,188.833 347.5,189.5C 346.761,189.369 346.094,189.536 345.5,190C 350.826,192.833 356.159,195.333 361.5,197.5C 361.833,197.5 362.167,197.5 362.5,197.5C 362.539,198.583 362.873,199.583 363.5,200.5C 368.619,203.726 373.952,206.393 379.5,208.5C 379.5,209.5 379.5,210.5 379.5,211.5C 383.724,211.696 387.224,213.362 390,216.5C 393.267,217.273 396.434,218.273 399.5,219.5C 399.414,220.496 399.748,221.329 400.5,222C 403.08,223.144 405.747,223.978 408.5,224.5C 409.514,225.674 410.847,226.34 412.5,226.5C 413.785,228.452 415.451,230.118 417.5,231.5C 420.388,233.391 422.055,236.058 422.5,239.5C 422.5,240.833 422.5,242.167 422.5,243.5C 422.441,251.069 421.108,258.402 418.5,265.5C 416.339,266.035 414.339,266.868 412.5,268C 413.308,268.308 413.975,268.808 414.5,269.5C 412.922,270.298 411.256,270.798 409.5,271C 410.337,272.011 410.67,273.178 410.5,274.5C 408.208,273.154 406.208,273.488 404.5,275.5C 399.537,276.496 394.537,276.663 389.5,276C 385.01,273.017 380.344,270.351 375.5,268C 374.207,267.51 372.873,267.343 371.5,267.5C 369.847,267.34 368.514,266.674 367.5,265.5C 367.5,264.5 367.5,263.5 367.5,262.5C 363.118,261.141 359.118,258.974 355.5,256C 354.207,255.51 352.873,255.343 351.5,255.5C 349.833,254.833 348.167,254.167 346.5,253.5C 344.517,252.529 342.517,251.529 340.5,250.5C 340.5,249.833 340.167,249.5 339.5,249.5C 339.822,247.278 339.155,245.444 337.5,244C 333.695,242.215 329.695,241.382 325.5,241.5C 320.249,234.7 313.249,230.7 304.5,229.5C 304.027,228.094 303.027,227.427 301.5,227.5C 299.847,227.34 298.514,226.674 297.5,225.5C 297.027,224.094 296.027,223.427 294.5,223.5C 292.456,222.492 290.456,221.492 288.5,220.5C 288.167,219.833 287.833,219.167 287.5,218.5C 285.215,216.882 283.215,214.882 281.5,212.5C 283.078,211.702 284.744,211.202 286.5,211C 284.667,209.212 282.667,209.046 280.5,210.5C 276.651,207.852 274.151,204.185 273,199.5C 272.833,198.167 272.667,196.833 272.5,195.5C 274.787,190.444 275.954,185.111 276,179.5C 277.842,177.136 279.675,174.803 281.5,172.5C 283.144,172.286 284.644,172.62 286,173.5C 286.333,172.833 286.667,172.167 287,171.5C 288,172.5 289,173.5 290,174.5C 291.667,173.167 293.333,173.167 295,174.5C 295.772,173.151 296.939,172.318 298.5,172C 296.285,171.83 294.285,171.163 292.5,170C 300.867,167.478 308.867,168.311 316.5,172.5 Z"/></g>
<g><path style="opacity:0.631" fill="#a7dac3" d="M 319.5,172.5 C 321.882,173.351 323.882,174.684 325.5,176.5C 323.5,175.833 321.5,175.167 319.5,174.5C 319.5,173.833 319.5,173.167 319.5,172.5 Z"/></g>
<g><path style="opacity:1" fill="#4aa173" d="M 319.5,174.5 C 321.5,175.167 323.5,175.833 325.5,176.5C 327.062,176.733 328.395,177.4 329.5,178.5C 329.973,179.906 330.973,180.573 332.5,180.5C 334.027,180.427 335.027,181.094 335.5,182.5C 332.575,182.54 329.909,181.707 327.5,180C 324.517,178.365 321.851,176.532 319.5,174.5 Z"/></g>
<g><path style="opacity:0.282" fill="#f9c1bc" d="M 173.5,176.5 C 173.027,177.906 172.027,178.573 170.5,178.5C 170.973,177.094 171.973,176.427 173.5,176.5 Z"/></g>
<g><path style="opacity:0.298" fill="#eca6a1" d="M 223.5,176.5 C 224.906,176.973 225.573,177.973 225.5,179.5C 224.094,179.027 223.427,178.027 223.5,176.5 Z"/></g>
<g><path style="opacity:0.161" fill="#b9e7d2" d="M 277.5,174.5 C 276.92,176.749 275.587,178.415 273.5,179.5C 274.08,177.251 275.413,175.585 277.5,174.5 Z"/></g>
<g><path style="opacity:0.043" fill="#c9f2de" d="M 329.5,178.5 C 331.027,178.427 332.027,179.094 332.5,180.5C 330.973,180.573 329.973,179.906 329.5,178.5 Z"/></g>
<g><path style="opacity:0.427" fill="#e9a39a" d="M 170.5,178.5 C 169.514,180.408 167.848,181.408 165.5,181.5C 166.659,179.75 168.326,178.75 170.5,178.5 Z"/></g>
<g><path style="opacity:0.992" fill="#db7b6e" d="M 165.5,181.5 C 164.191,184.451 161.857,185.784 158.5,185.5C 160.336,183.412 162.669,182.079 165.5,181.5 Z"/></g>
<g><path style="opacity:1" fill="#2a9960" d="M 281.5,172.5 C 279.675,174.803 277.842,177.136 276,179.5C 275.954,185.111 274.787,190.444 272.5,195.5C 272.667,196.833 272.833,198.167 273,199.5C 274.151,204.185 276.651,207.852 280.5,210.5C 282.667,209.046 284.667,209.212 286.5,211C 284.744,211.202 283.078,211.702 281.5,212.5C 283.215,214.882 285.215,216.882 287.5,218.5C 286.833,218.5 286.167,218.5 285.5,218.5C 284.508,218.672 283.842,218.338 283.5,217.5C 282.415,215.413 280.749,214.08 278.5,213.5C 277.5,213.167 276.833,212.5 276.5,211.5C 276.573,209.973 275.906,208.973 274.5,208.5C 272.707,206.574 271.707,204.241 271.5,201.5C 271.109,194.349 271.775,187.349 273.5,180.5C 273.5,180.167 273.5,179.833 273.5,179.5C 275.587,178.415 276.92,176.749 277.5,174.5C 278.605,173.4 279.938,172.733 281.5,172.5 Z"/></g>
<g><path style="opacity:1" fill="#79c09c" d="M 335.5,182.5 C 337.97,182.654 339.97,183.654 341.5,185.5C 338.68,185.913 336.68,184.913 335.5,182.5 Z"/></g>
<g><path style="opacity:0.192" fill="#c2f2dc" d="M 341.5,185.5 C 343.674,185.75 345.341,186.75 346.5,188.5C 344.326,188.25 342.659,187.25 341.5,185.5 Z"/></g>
<g><path style="opacity:1" fill="#e16f64" d="M 158.5,185.5 C 157.286,187.149 155.953,188.815 154.5,190.5C 153.817,190.137 153.15,189.804 152.5,189.5C 153.733,187.204 155.733,185.87 158.5,185.5 Z"/></g>
<g><path style="opacity:0.102" fill="#f8bbb6" d="M 227.5,183.5 C 229.019,186.526 229.685,189.859 229.5,193.5C 229.333,195.833 229.167,198.167 229,200.5C 228.722,201.416 228.222,202.082 227.5,202.5C 228.779,196.174 228.779,189.841 227.5,183.5 Z"/></g>
<g><path style="opacity:0.875" fill="#7bbf9d" d="M 347.5,189.5 C 350.919,190.708 354.253,192.208 357.5,194C 359.093,194.949 360.426,196.115 361.5,197.5C 356.159,195.333 350.826,192.833 345.5,190C 346.094,189.536 346.761,189.369 347.5,189.5 Z"/></g>
<g><path style="opacity:0.6" fill="#eea396" d="M 151.5,189.5 C 151.027,190.906 150.027,191.573 148.5,191.5C 148.973,190.094 149.973,189.427 151.5,189.5 Z"/></g>
<g><path style="opacity:1" fill="#da5347" d="M 217.5,171.5 C 218.605,172.6 219.938,173.267 221.5,173.5C 222.551,174.222 223.218,175.222 223.5,176.5C 223.427,178.027 224.094,179.027 225.5,179.5C 226.674,180.514 227.34,181.847 227.5,183.5C 228.779,189.841 228.779,196.174 227.5,202.5C 227.608,204.514 226.942,206.18 225.5,207.5C 225.167,207.5 224.833,207.5 224.5,207.5C 225.058,204.656 225.725,201.822 226.5,199C 225.667,193.845 225.5,188.678 226,183.5C 224.414,180.866 222.08,179.199 219,178.5C 218.56,176.134 218.06,173.801 217.5,171.5 Z"/></g>
<g><path style="opacity:0.931" fill="#89c8a9" d="M 273.5,180.5 C 271.775,187.349 271.109,194.349 271.5,201.5C 270.778,201.082 270.278,200.416 270,199.5C 268.594,192.553 269.761,186.22 273.5,180.5 Z"/></g>
<g><path style="opacity:1" fill="#da6055" d="M 148.5,191.5 C 148.241,195.068 146.241,196.401 142.5,195.5C 142.5,195.167 142.5,194.833 142.5,194.5C 144.181,192.992 146.181,191.992 148.5,191.5 Z"/></g>
<g><path style="opacity:0.929" fill="#e28b85" d="M 142.5,194.5 C 142.5,194.833 142.5,195.167 142.5,195.5C 139.765,198.201 136.431,199.868 132.5,200.5C 135.494,198 138.827,196 142.5,194.5 Z"/></g>
<g><path style="opacity:0.365" fill="#f4c7ac" d="M 128.5,202.5 C 128.027,203.906 127.027,204.573 125.5,204.5C 125.973,203.094 126.973,202.427 128.5,202.5 Z"/></g>
<g><path style="opacity:0.969" fill="#d46a5e" d="M 132.5,200.5 C 129.729,204.887 125.729,207.221 120.5,207.5C 121.965,206.263 123.632,205.263 125.5,204.5C 127.027,204.573 128.027,203.906 128.5,202.5C 129.605,201.4 130.938,200.733 132.5,200.5 Z"/></g>
<g><path style="opacity:0.02" fill="#c7f1d2" d="M 374.5,204.5 C 376.027,204.427 377.027,205.094 377.5,206.5C 375.973,206.573 374.973,205.906 374.5,204.5 Z"/></g>
<g><path style="opacity:0.067" fill="#f6c6c6" d="M 224.5,207.5 C 224.833,207.5 225.167,207.5 225.5,207.5C 225.573,209.027 224.906,210.027 223.5,210.5C 223.557,209.391 223.89,208.391 224.5,207.5 Z"/></g>
<g><path style="opacity:0.004" fill="#d9f5e8" d="M 274.5,208.5 C 275.906,208.973 276.573,209.973 276.5,211.5C 275.094,211.027 274.427,210.027 274.5,208.5 Z"/></g>
<g><path style="opacity:0.118" fill="#caf3e2" d="M 381.5,208.5 C 383.674,208.75 385.341,209.75 386.5,211.5C 384.326,211.25 382.659,210.25 381.5,208.5 Z"/></g>
<g><path style="opacity:1" fill="#5bab80" d="M 362.5,197.5 C 366.828,199.329 370.828,201.662 374.5,204.5C 374.973,205.906 375.973,206.573 377.5,206.5C 379.062,206.733 380.395,207.4 381.5,208.5C 382.659,210.25 384.326,211.25 386.5,211.5C 391.343,213.418 395.677,216.084 399.5,219.5C 396.434,218.273 393.267,217.273 390,216.5C 387.224,213.362 383.724,211.696 379.5,211.5C 379.5,210.5 379.5,209.5 379.5,208.5C 373.952,206.393 368.619,203.726 363.5,200.5C 362.873,199.583 362.539,198.583 362.5,197.5 Z"/></g>
<g><path style="opacity:0.886" fill="#e18277" d="M 120.5,207.5 C 117.938,211.285 114.271,213.285 109.5,213.5C 112.678,210.742 116.345,208.742 120.5,207.5 Z"/></g>
<g><path style="opacity:0.447" fill="#a1d9c4" d="M 278.5,213.5 C 280.749,214.08 282.415,215.413 283.5,217.5C 281.251,216.92 279.585,215.587 278.5,213.5 Z"/></g>
<g><path style="opacity:0.435" fill="#f7bcb3" d="M 109.5,213.5 C 109.027,214.906 108.027,215.573 106.5,215.5C 106.973,214.094 107.973,213.427 109.5,213.5 Z"/></g>
<g><path style="opacity:0.114" fill="#fac4c2" d="M 218.5,215.5 C 216.516,218.164 213.849,219.831 210.5,220.5C 210.5,220.167 210.5,219.833 210.5,219.5C 213.193,218.153 215.86,216.82 218.5,215.5 Z"/></g>
<g><path style="opacity:0.361" fill="#f2bdb6" d="M 102.5,217.5 C 102.027,218.906 101.027,219.573 99.5,219.5C 99.9731,218.094 100.973,217.427 102.5,217.5 Z"/></g>
<g><path style="opacity:0.071" fill="#beeed5" d="M 285.5,218.5 C 286.167,218.5 286.833,218.5 287.5,218.5C 287.833,219.167 288.167,219.833 288.5,220.5C 286.973,220.573 285.973,219.906 285.5,218.5 Z"/></g>
<g><path style="opacity:1" fill="#c75856" d="M 106.5,215.5 C 105.375,217.129 104.041,218.629 102.5,220C 103.737,220.232 104.737,220.732 105.5,221.5C 103.143,221.663 100.81,221.497 98.5,221C 99.056,220.617 99.3893,220.117 99.5,219.5C 101.027,219.573 102.027,218.906 102.5,217.5C 103.605,216.4 104.938,215.733 106.5,215.5 Z"/></g>
<g><path style="opacity:1" fill="#a26c93" d="M 99.5,219.5 C 99.3893,220.117 99.056,220.617 98.5,221C 100.81,221.497 103.143,221.663 105.5,221.5C 107.621,221.325 109.621,221.659 111.5,222.5C 111.5,222.833 111.5,223.167 111.5,223.5C 105.167,222.167 98.8333,222.167 92.5,223.5C 94.6626,221.917 96.9959,220.584 99.5,219.5 Z"/></g>
<g><path style="opacity:0.996" fill="#73bb95" d="M 399.5,219.5 C 402.992,220.41 405.992,222.076 408.5,224.5C 405.747,223.978 403.08,223.144 400.5,222C 399.748,221.329 399.414,220.496 399.5,219.5 Z"/></g>
<g><path style="opacity:1" fill="#dc6e5e" d="M 210.5,219.5 C 210.5,219.833 210.5,220.167 210.5,220.5C 206.836,223.335 202.836,225.668 198.5,227.5C 196.973,227.427 195.973,228.094 195.5,229.5C 195.167,229.5 194.833,229.5 194.5,229.5C 193.391,229.557 192.391,229.89 191.5,230.5C 193.662,227.58 196.662,225.913 200.5,225.5C 200.5,224.5 200.5,223.5 200.5,222.5C 203.455,220.614 206.789,219.614 210.5,219.5 Z"/></g>
<g><path style="opacity:1" fill="#4386f4" d="M 117.5,227.5 C 119.835,230.165 122.835,231.498 126.5,231.5C 126.833,231.5 127.167,231.5 127.5,231.5C 130.552,233.867 133.885,235.867 137.5,237.5C 139.121,239.942 141.454,241.275 144.5,241.5C 146.461,244.947 149.461,246.947 153.5,247.5C 154.167,247.5 154.833,247.5 155.5,247.5C 156.287,249.104 157.62,249.771 159.5,249.5C 159.782,250.778 160.449,251.778 161.5,252.5C 162.476,253.815 163.476,255.148 164.5,256.5C 163.053,258.403 161.386,260.07 159.5,261.5C 159.833,261.833 160.167,262.167 160.5,262.5C 162.822,260.757 165.322,259.423 168,258.5C 170.149,259.299 172.316,260.133 174.5,261C 175.337,262.011 175.67,263.178 175.5,264.5C 178.237,264.401 180.904,264.735 183.5,265.5C 184.167,265.5 184.833,265.5 185.5,265.5C 185.279,266.735 184.612,267.735 183.5,268.5C 185.766,269.314 188.1,269.814 190.5,270C 191.337,271.011 191.67,272.178 191.5,273.5C 193.927,273.523 196.26,274.023 198.5,275C 195.294,276.74 195.128,278.24 198,279.5C 199.447,279.055 200.78,278.388 202,277.5C 204.434,278.322 206.934,278.656 209.5,278.5C 211.418,281.138 214.085,282.805 217.5,283.5C 217.328,284.492 217.662,285.158 218.5,285.5C 218.709,286.922 219.209,288.255 220,289.5C 222.374,291.539 224.374,293.872 226,296.5C 227.042,302.542 227.209,308.542 226.5,314.5C 225.412,317.057 224.412,319.724 223.5,322.5C 222.5,322.5 221.5,322.5 220.5,322.5C 220.5,324.167 220.5,325.833 220.5,327.5C 212.514,334.505 203.514,336.505 193.5,333.5C 190.202,331.017 186.535,329.351 182.5,328.5C 180.847,328.34 179.514,327.674 178.5,326.5C 178.027,325.094 177.027,324.427 175.5,324.5C 173.112,320.971 169.779,318.971 165.5,318.5C 164.508,318.672 163.842,318.338 163.5,317.5C 163.67,316.178 163.337,315.011 162.5,314C 157.853,311.651 153.187,309.485 148.5,307.5C 147.833,307.5 147.167,307.5 146.5,307.5C 145.833,306.167 144.833,305.167 143.5,304.5C 143.423,303.25 142.756,302.417 141.5,302C 143.271,301.465 143.604,300.631 142.5,299.5C 140.902,300.485 139.235,300.651 137.5,300C 134.362,298.597 131.362,296.93 128.5,295C 127.929,293.795 127.262,292.628 126.5,291.5C 123.904,292.213 121.237,292.213 118.5,291.5C 117.191,288.549 114.857,287.216 111.5,287.5C 110.817,285.824 109.483,285.157 107.5,285.5C 107.027,284.094 106.027,283.427 104.5,283.5C 104.027,282.094 103.027,281.427 101.5,281.5C 98.6689,280.921 96.3356,279.588 94.5,277.5C 94.5858,276.504 94.2524,275.671 93.5,275C 91.1136,273.807 88.7802,272.64 86.5,271.5C 85.3951,270.4 84.0618,269.733 82.5,269.5C 82.4456,267.368 81.4456,266.035 79.5,265.5C 79.5,264.833 79.5,264.167 79.5,263.5C 76.9927,256.645 76.326,249.645 77.5,242.5C 77.5,241.5 77.5,240.5 77.5,239.5C 80.5454,238.455 82.5454,236.455 83.5,233.5C 86.4797,233.759 88.313,232.426 89,229.5C 90.397,232.068 91.5636,231.901 92.5,229C 92.0946,228.055 91.428,227.388 90.5,227C 99.6219,223.519 108.622,223.686 117.5,227.5 Z"/></g>
<g><path style="opacity:0.298" fill="#a0ddc7" d="M 294.5,223.5 C 296.027,223.427 297.027,224.094 297.5,225.5C 295.973,225.573 294.973,224.906 294.5,223.5 Z"/></g>
<g><path style="opacity:0.09" fill="#cef3e0" d="M 408.5,224.5 C 410.38,224.229 411.713,224.896 412.5,226.5C 410.847,226.34 409.514,225.674 408.5,224.5 Z"/></g>
<g><path style="opacity:0.584" fill="#a9c1ec" d="M 92.5,223.5 C 91.5144,225.408 89.8477,226.408 87.5,226.5C 88.6594,224.75 90.326,223.75 92.5,223.5 Z"/></g>
<g><path style="opacity:1" fill="#d84847" d="M 111.5,223.5 C 111.5,223.167 111.5,222.833 111.5,222.5C 115.49,222.999 119.49,223.499 123.5,224C 122.167,224.333 120.833,224.667 119.5,225C 121.701,226.043 124.034,226.877 126.5,227.5C 127.18,228.86 127.847,230.193 128.5,231.5C 128.167,231.5 127.833,231.5 127.5,231.5C 127.167,231.5 126.833,231.5 126.5,231.5C 123.011,228.92 119.344,226.587 115.5,224.5C 114.167,224.167 112.833,223.833 111.5,223.5 Z"/></g>
<g><path style="opacity:1" fill="#866faf" d="M 115.5,224.5 C 119.344,226.587 123.011,228.92 126.5,231.5C 122.835,231.498 119.835,230.165 117.5,227.5C 116.833,226.5 116.167,225.5 115.5,224.5 Z"/></g>
<g><path style="opacity:0.004" fill="#fee4e3" d="M 198.5,227.5 C 198.027,228.906 197.027,229.573 195.5,229.5C 195.973,228.094 196.973,227.427 198.5,227.5 Z"/></g>
<g><path style="opacity:0.153" fill="#9ad8bd" d="M 301.5,227.5 C 303.027,227.427 304.027,228.094 304.5,229.5C 302.973,229.573 301.973,228.906 301.5,227.5 Z"/></g>
<g><path style="opacity:0.345" fill="#b2e2cd" d="M 412.5,226.5 C 415.189,227.189 416.856,228.856 417.5,231.5C 415.451,230.118 413.785,228.452 412.5,226.5 Z"/></g>
<g><path style="opacity:0.553" fill="#a9c8ec" d="M 87.5,226.5 C 85.1667,229.5 82.5,232.167 79.5,234.5C 81.1667,230.833 83.8333,228.167 87.5,226.5 Z"/></g>
<g><path style="opacity:0.024" fill="#fbbdba" d="M 194.5,229.5 C 194.027,230.906 193.027,231.573 191.5,231.5C 191.5,231.167 191.5,230.833 191.5,230.5C 192.391,229.89 193.391,229.557 194.5,229.5 Z"/></g>
<g><path style="opacity:1" fill="#5082e3" d="M 111.5,223.5 C 112.833,223.833 114.167,224.167 115.5,224.5C 116.167,225.5 116.833,226.5 117.5,227.5C 108.622,223.686 99.6219,223.519 90.5,227C 91.428,227.388 92.0946,228.055 92.5,229C 91.5636,231.901 90.397,232.068 89,229.5C 88.313,232.426 86.4797,233.759 83.5,233.5C 82.5454,236.455 80.5454,238.455 77.5,239.5C 77.5,239.167 77.5,238.833 77.5,238.5C 77.5,238.167 77.5,237.833 77.5,237.5C 78.9063,237.027 79.573,236.027 79.5,234.5C 82.5,232.167 85.1667,229.5 87.5,226.5C 89.8477,226.408 91.5144,225.408 92.5,223.5C 98.8333,222.167 105.167,222.167 111.5,223.5 Z"/></g>
<g><path style="opacity:0.004" fill="#ffe3d9" d="M 191.5,231.5 C 191.027,232.906 190.027,233.573 188.5,233.5C 188.973,232.094 189.973,231.427 191.5,231.5 Z"/></g>
<g><path style="opacity:0.086" fill="#b9ecd2" d="M 311.5,233.5 C 313.027,233.427 314.027,234.094 314.5,235.5C 312.973,235.573 311.973,234.906 311.5,233.5 Z"/></g>
<g><path style="opacity:1" fill="#4da777" d="M 304.5,229.5 C 313.249,230.7 320.249,234.7 325.5,241.5C 321.634,239.736 317.967,237.736 314.5,235.5C 314.027,234.094 313.027,233.427 311.5,233.5C 308.669,232.921 306.336,231.588 304.5,229.5 Z"/></g>
<g><path style="opacity:0.184" fill="#d0e4fc" d="M 79.5,234.5 C 79.573,236.027 78.9063,237.027 77.5,237.5C 77.427,235.973 78.0937,234.973 79.5,234.5 Z"/></g>
<g><path style="opacity:1" fill="#be5365" d="M 127.5,231.5 C 127.833,231.5 128.167,231.5 128.5,231.5C 132.424,233.132 136.09,235.132 139.5,237.5C 138.833,237.5 138.167,237.5 137.5,237.5C 133.885,235.867 130.552,233.867 127.5,231.5 Z"/></g>
<g><path style="opacity:0.031" fill="#e6978e" d="M 187.5,233.5 C 185.664,235.588 183.331,236.921 180.5,237.5C 182.089,234.92 184.422,233.587 187.5,233.5 Z"/></g>
<g><path style="opacity:1" fill="#996593" d="M 137.5,237.5 C 138.167,237.5 138.833,237.5 139.5,237.5C 141.167,238.833 142.833,240.167 144.5,241.5C 141.454,241.275 139.121,239.942 137.5,237.5 Z"/></g>
<g><path style="opacity:0.996" fill="#df7667" d="M 178.5,239.5 C 176.544,240.492 174.544,241.492 172.5,242.5C 170.847,242.66 169.514,243.326 168.5,244.5C 168.167,244.5 167.833,244.5 167.5,244.5C 169.973,240.582 173.64,238.916 178.5,239.5 Z"/></g>
<g><path style="opacity:0.396" fill="#8cbbe9" d="M 77.5,238.5 C 77.5,238.833 77.5,239.167 77.5,239.5C 77.5,240.5 77.5,241.5 77.5,242.5C 76.8333,243.167 76.1667,243.833 75.5,244.5C 75.2594,242.102 75.9261,240.102 77.5,238.5 Z"/></g>
<g><path style="opacity:0.094" fill="#f6c8c5" d="M 172.5,242.5 C 171.713,244.104 170.38,244.771 168.5,244.5C 169.514,243.326 170.847,242.66 172.5,242.5 Z"/></g>
<g><path style="opacity:1" fill="#3fa26f" d="M 325.5,241.5 C 329.695,241.382 333.695,242.215 337.5,244C 339.155,245.444 339.822,247.278 339.5,249.5C 339.167,249.5 338.833,249.5 338.5,249.5C 336.632,248.737 334.965,247.737 333.5,246.5C 333.027,245.094 332.027,244.427 330.5,244.5C 328.336,244.279 326.67,243.279 325.5,241.5 Z"/></g>
<g><path style="opacity:1" fill="#826fb5" d="M 144.5,241.5 C 147.14,242.82 149.807,244.153 152.5,245.5C 152.833,246.167 153.167,246.833 153.5,247.5C 149.461,246.947 146.461,244.947 144.5,241.5 Z"/></g>
<g><path style="opacity:0.055" fill="#c3e9da" d="M 330.5,244.5 C 332.027,244.427 333.027,245.094 333.5,246.5C 331.973,246.573 330.973,245.906 330.5,244.5 Z"/></g>
<g><path style="opacity:0.42" fill="#a9d7c2" d="M 422.5,239.5 C 425.932,245.369 426.265,251.369 423.5,257.5C 423.819,252.637 423.486,247.97 422.5,243.5C 422.5,242.167 422.5,240.833 422.5,239.5 Z"/></g>
<g><path style="opacity:1" fill="#b35873" d="M 152.5,245.5 C 154.027,245.427 155.027,246.094 155.5,247.5C 154.833,247.5 154.167,247.5 153.5,247.5C 153.167,246.833 152.833,246.167 152.5,245.5 Z"/></g>
<g><path style="opacity:0.914" fill="#7297e4" d="M 77.5,242.5 C 76.326,249.645 76.9927,256.645 79.5,263.5C 78.8333,263.167 78.1667,262.833 77.5,262.5C 77.5,262.167 77.5,261.833 77.5,261.5C 77.5979,259.447 76.9313,257.78 75.5,256.5C 74.1667,252.5 74.1667,248.5 75.5,244.5C 76.1667,243.833 76.8333,243.167 77.5,242.5 Z"/></g>
<g><path style="opacity:0.09" fill="#f2b4ab" d="M 167.5,244.5 C 167.833,244.5 168.167,244.5 168.5,244.5C 166.66,246.669 164.326,248.002 161.5,248.5C 163.223,246.782 165.223,245.449 167.5,244.5 Z"/></g>
<g><path style="opacity:0.992" fill="#b16375" d="M 155.5,247.5 C 157.435,248.15 159.435,248.483 161.5,248.5C 161.5,249.167 161.167,249.5 160.5,249.5C 160.167,249.5 159.833,249.5 159.5,249.5C 157.62,249.771 156.287,249.104 155.5,247.5 Z"/></g>
<g><path style="opacity:0.624" fill="#becff0" d="M 159.5,249.5 C 159.833,249.5 160.167,249.5 160.5,249.5C 162.349,250.593 164.016,251.926 165.5,253.5C 164.167,253.167 162.833,252.833 161.5,252.5C 160.449,251.778 159.782,250.778 159.5,249.5 Z"/></g>
<g><path style="opacity:0.999" fill="#409f6d" d="M 422.5,243.5 C 423.486,247.97 423.819,252.637 423.5,257.5C 422.786,261.933 420.786,265.6 417.5,268.5C 416.5,268.833 415.833,269.5 415.5,270.5C 414.415,272.587 412.749,273.92 410.5,274.5C 410.67,273.178 410.337,272.011 409.5,271C 411.256,270.798 412.922,270.298 414.5,269.5C 413.975,268.808 413.308,268.308 412.5,268C 414.339,266.868 416.339,266.035 418.5,265.5C 421.108,258.402 422.441,251.069 422.5,243.5 Z"/></g>
<g><path style="opacity:0.404" fill="#f9e69e" d="M 338.5,249.5 C 338.833,249.5 339.167,249.5 339.5,249.5C 340.167,249.5 340.5,249.833 340.5,250.5C 338.95,251.441 337.284,252.107 335.5,252.5C 336.306,251.272 337.306,250.272 338.5,249.5 Z"/></g>
<g><path style="opacity:0.596" fill="#bed6f3" d="M 166.5,253.5 C 168.882,254.351 170.882,255.684 172.5,257.5C 169.733,257.13 167.733,255.796 166.5,253.5 Z"/></g>
<g><path style="opacity:0.992" fill="#f1d470" d="M 335.5,252.5 C 334.145,255.518 331.812,256.851 328.5,256.5C 330.566,254.801 332.9,253.468 335.5,252.5 Z"/></g>
<g><path style="opacity:1" fill="#f8bb07" d="M 340.5,250.5 C 342.517,251.529 344.517,252.529 346.5,253.5C 346.5,254.5 346.5,255.5 346.5,256.5C 350.643,257.238 354.31,259.071 357.5,262C 359.518,262.505 361.518,263.005 363.5,263.5C 364.605,264.6 365.938,265.267 367.5,265.5C 368.514,266.674 369.847,267.34 371.5,267.5C 380.004,275.079 390.004,278.746 401.5,278.5C 401.5,278.833 401.5,279.167 401.5,279.5C 399.973,279.427 398.973,280.094 398.5,281.5C 395.674,281.998 393.34,283.331 391.5,285.5C 389.62,285.229 388.287,285.896 387.5,287.5C 385.011,287.241 383.344,288.241 382.5,290.5C 377.619,291.24 372.953,292.573 368.5,294.5C 368.5,295.5 368.5,296.5 368.5,297.5C 366.111,297.979 364.444,299.312 363.5,301.5C 363.158,302.338 362.492,302.672 361.5,302.5C 357.261,302.695 353.928,304.362 351.5,307.5C 351.5,308.167 351.167,308.5 350.5,308.5C 347.477,308.588 344.81,309.588 342.5,311.5C 341.914,311.291 341.414,310.957 341,310.5C 340.51,311.793 340.343,313.127 340.5,314.5C 338.011,314.241 336.344,315.241 335.5,317.5C 331.011,318.988 327.011,321.322 323.5,324.5C 318.525,325.316 314.525,327.649 311.5,331.5C 309.219,331.077 307.552,331.744 306.5,333.5C 299.076,333.698 291.743,333.032 284.5,331.5C 283.415,329.413 281.749,328.08 279.5,327.5C 279.5,326.167 278.833,325.5 277.5,325.5C 276.551,323.223 275.218,321.223 273.5,319.5C 272.069,318.22 271.402,316.553 271.5,314.5C 271.5,313.5 271.5,312.5 271.5,311.5C 270.174,303.846 272.008,297.18 277,291.5C 277.49,290.207 277.657,288.873 277.5,287.5C 280.089,286.581 282.089,284.914 283.5,282.5C 286.912,281.925 289.912,280.592 292.5,278.5C 296.444,277.182 299.778,274.848 302.5,271.5C 305.812,271.851 308.145,270.518 309.5,267.5C 311.027,267.573 312.027,266.906 312.5,265.5C 314.38,265.771 315.713,265.104 316.5,263.5C 316.842,262.662 317.508,262.328 318.5,262.5C 321.269,261.563 323.936,260.396 326.5,259C 327.381,258.292 328.047,257.458 328.5,256.5C 331.812,256.851 334.145,255.518 335.5,252.5C 337.284,252.107 338.95,251.441 340.5,250.5 Z"/></g>
<g><path style="opacity:1" fill="#c8c029" d="M 346.5,253.5 C 348.167,254.167 349.833,254.833 351.5,255.5C 355.19,258.675 359.19,261.342 363.5,263.5C 361.518,263.005 359.518,262.505 357.5,262C 354.31,259.071 350.643,257.238 346.5,256.5C 346.5,255.5 346.5,254.5 346.5,253.5 Z"/></g>
<g><path style="opacity:1" fill="#3e9736" d="M 351.5,255.5 C 352.873,255.343 354.207,255.51 355.5,256C 359.118,258.974 363.118,261.141 367.5,262.5C 367.5,263.5 367.5,264.5 367.5,265.5C 365.938,265.267 364.605,264.6 363.5,263.5C 359.19,261.342 355.19,258.675 351.5,255.5 Z"/></g>
<g><path style="opacity:0.251" fill="#b3d0f4" d="M 75.5,256.5 C 76.9313,257.78 77.5979,259.447 77.5,261.5C 76.0687,260.22 75.4021,258.553 75.5,256.5 Z"/></g>
<g><path style="opacity:0.31" fill="#fae596" d="M 328.5,256.5 C 328.047,257.458 327.381,258.292 326.5,259C 323.936,260.396 321.269,261.563 318.5,262.5C 321.242,259.579 324.575,257.579 328.5,256.5 Z"/></g>
<g><path style="opacity:0.008" fill="#dbeefd" d="M 77.5,262.5 C 78.1667,262.833 78.8333,263.167 79.5,263.5C 79.5,264.167 79.5,264.833 79.5,265.5C 78.0937,265.027 77.427,264.027 77.5,262.5 Z"/></g>
<g><path style="opacity:1" fill="#5f8fe7" d="M 161.5,252.5 C 162.833,252.833 164.167,253.167 165.5,253.5C 165.833,253.5 166.167,253.5 166.5,253.5C 167.733,255.796 169.733,257.13 172.5,257.5C 176.362,259.262 180.028,261.262 183.5,263.5C 183.5,264.167 183.5,264.833 183.5,265.5C 180.904,264.735 178.237,264.401 175.5,264.5C 175.67,263.178 175.337,262.011 174.5,261C 172.316,260.133 170.149,259.299 168,258.5C 165.322,259.423 162.822,260.757 160.5,262.5C 160.167,262.167 159.833,261.833 159.5,261.5C 161.386,260.07 163.053,258.403 164.5,256.5C 163.476,255.148 162.476,253.815 161.5,252.5 Z"/></g>
<g><path style="opacity:0.706" fill="#a8c7ef" d="M 183.5,263.5 C 184.71,263.932 185.71,264.599 186.5,265.5C 186.167,265.5 185.833,265.5 185.5,265.5C 184.833,265.5 184.167,265.5 183.5,265.5C 183.5,264.833 183.5,264.167 183.5,263.5 Z"/></g>
<g><path style="opacity:0.184" fill="#fbeda6" d="M 316.5,263.5 C 315.713,265.104 314.38,265.771 312.5,265.5C 313.514,264.326 314.847,263.66 316.5,263.5 Z"/></g>
<g><path style="opacity:0.2" fill="#c7def9" d="M 186.5,265.5 C 188.674,265.75 190.341,266.75 191.5,268.5C 189.326,268.25 187.659,267.25 186.5,265.5 Z"/></g>
<g><path style="opacity:0.38" fill="#fde9aa" d="M 312.5,265.5 C 312.027,266.906 311.027,267.573 309.5,267.5C 309.973,266.094 310.973,265.427 312.5,265.5 Z"/></g>
<g><path style="opacity:0.58" fill="#a6c2e9" d="M 79.5,265.5 C 81.4456,266.035 82.4456,267.368 82.5,269.5C 81.0256,268.564 80.0256,267.23 79.5,265.5 Z"/></g>
<g><path style="opacity:0.514" fill="#b4d2ef" d="M 82.5,269.5 C 84.0618,269.733 85.3951,270.4 86.5,271.5C 86.8333,272.167 87.1667,272.833 87.5,273.5C 85.2512,272.92 83.5846,271.587 82.5,269.5 Z"/></g>
<g><path style="opacity:0.012" fill="#ceebda" d="M 417.5,268.5 C 417.5,269.833 416.833,270.5 415.5,270.5C 415.833,269.5 416.5,268.833 417.5,268.5 Z"/></g>
<g><path style="opacity:0.918" fill="#99b6eb" d="M 193.5,269.5 C 195.853,270.34 197.853,271.674 199.5,273.5C 197.188,272.68 194.854,271.847 192.5,271C 193.056,270.617 193.389,270.117 193.5,269.5 Z"/></g>
<g><path style="opacity:1" fill="#f3d476" d="M 309.5,267.5 C 308.145,270.518 305.812,271.851 302.5,271.5C 304.566,269.801 306.9,268.468 309.5,267.5 Z"/></g>
<g><path style="opacity:1" fill="#5b9d33" d="M 371.5,267.5 C 372.873,267.343 374.207,267.51 375.5,268C 380.344,270.351 385.01,273.017 389.5,276C 394.537,276.663 399.537,276.496 404.5,275.5C 404.5,276.167 404.5,276.833 404.5,277.5C 403.391,277.557 402.391,277.89 401.5,278.5C 390.004,278.746 380.004,275.079 371.5,267.5 Z"/></g>
<g><path style="opacity:0.98" fill="#66b479" d="M 410.5,274.5 C 408.819,276.008 406.819,277.008 404.5,277.5C 404.5,276.833 404.5,276.167 404.5,275.5C 406.208,273.488 408.208,273.154 410.5,274.5 Z"/></g>
<g><path style="opacity:0.071" fill="#c9e6f9" d="M 200.5,273.5 C 202.027,273.427 203.027,274.094 203.5,275.5C 201.973,275.573 200.973,274.906 200.5,273.5 Z"/></g>
<g><path style="opacity:0.953" fill="#7da1df" d="M 86.5,271.5 C 88.7802,272.64 91.1136,273.807 93.5,275C 94.2524,275.671 94.5858,276.504 94.5,277.5C 91.6689,276.921 89.3356,275.588 87.5,273.5C 87.1667,272.833 86.8333,272.167 86.5,271.5 Z"/></g>
<g><path style="opacity:0.404" fill="#fae4a3" d="M 295.5,275.5 C 295.027,276.906 294.027,277.573 292.5,277.5C 292.973,276.094 293.973,275.427 295.5,275.5 Z"/></g>
<g><path style="opacity:1" fill="#5a8fe9" d="M 185.5,265.5 C 185.833,265.5 186.167,265.5 186.5,265.5C 187.659,267.25 189.326,268.25 191.5,268.5C 192.492,268.328 193.158,268.662 193.5,269.5C 193.389,270.117 193.056,270.617 192.5,271C 194.854,271.847 197.188,272.68 199.5,273.5C 199.833,273.5 200.167,273.5 200.5,273.5C 200.973,274.906 201.973,275.573 203.5,275.5C 205.544,276.508 207.544,277.508 209.5,278.5C 206.934,278.656 204.434,278.322 202,277.5C 200.78,278.388 199.447,279.055 198,279.5C 195.128,278.24 195.294,276.74 198.5,275C 196.26,274.023 193.927,273.523 191.5,273.5C 191.67,272.178 191.337,271.011 190.5,270C 188.1,269.814 185.766,269.314 183.5,268.5C 184.612,267.735 185.279,266.735 185.5,265.5 Z"/></g>
<g><path style="opacity:1" fill="#f2c34b" d="M 302.5,271.5 C 299.778,274.848 296.444,277.182 292.5,278.5C 292.5,278.167 292.5,277.833 292.5,277.5C 294.027,277.573 295.027,276.906 295.5,275.5C 297.566,273.801 299.9,272.468 302.5,271.5 Z"/></g>
<g><path style="opacity:0.973" fill="#f5d67c" d="M 292.5,277.5 C 292.5,277.833 292.5,278.167 292.5,278.5C 289.912,280.592 286.912,281.925 283.5,282.5C 286.008,280.076 289.008,278.41 292.5,277.5 Z"/></g>
<g><path style="opacity:0.039" fill="#f0eda2" d="M 404.5,277.5 C 404.027,278.906 403.027,279.573 401.5,279.5C 401.5,279.167 401.5,278.833 401.5,278.5C 402.391,277.89 403.391,277.557 404.5,277.5 Z"/></g>
<g><path style="opacity:0.702" fill="#b7d0f3" d="M 209.5,278.5 C 212.54,279.68 215.206,281.347 217.5,283.5C 214.085,282.805 211.418,281.138 209.5,278.5 Z"/></g>
<g><path style="opacity:0.02" fill="#fef1bb" d="M 401.5,279.5 C 401.027,280.906 400.027,281.573 398.5,281.5C 398.973,280.094 399.973,279.427 401.5,279.5 Z"/></g>
<g><path style="opacity:0.212" fill="#c5d8f7" d="M 101.5,281.5 C 103.027,281.427 104.027,282.094 104.5,283.5C 102.973,283.573 101.973,282.906 101.5,281.5 Z"/></g>
<g><path style="opacity:0.106" fill="#daebff" d="M 104.5,283.5 C 106.027,283.427 107.027,284.094 107.5,285.5C 105.973,285.573 104.973,284.906 104.5,283.5 Z"/></g>
<g><path style="opacity:0.031" fill="#fdedaa" d="M 398.5,281.5 C 396.664,283.588 394.331,284.921 391.5,285.5C 393.34,283.331 395.674,281.998 398.5,281.5 Z"/></g>
<g><path style="opacity:0.816" fill="#9eb9e7" d="M 107.5,285.5 C 109.483,285.157 110.817,285.824 111.5,287.5C 109.847,287.34 108.514,286.674 107.5,285.5 Z"/></g>
<g><path style="opacity:0.412" fill="#b5cff2" d="M 217.5,283.5 C 219.773,283.957 221.106,285.29 221.5,287.5C 220.5,286.833 219.5,286.167 218.5,285.5C 217.662,285.158 217.328,284.492 217.5,283.5 Z"/></g>
<g><path style="opacity:0.749" fill="#f6de83" d="M 283.5,282.5 C 282.089,284.914 280.089,286.581 277.5,287.5C 278.911,285.086 280.911,283.419 283.5,282.5 Z"/></g>
<g><path style="opacity:0.031" fill="#fbea8e" d="M 391.5,285.5 C 390.486,286.674 389.153,287.34 387.5,287.5C 388.287,285.896 389.62,285.229 391.5,285.5 Z"/></g>
<g><path style="opacity:0.941" fill="#f1d876" d="M 387.5,287.5 C 386.341,289.25 384.674,290.25 382.5,290.5C 383.344,288.241 385.011,287.241 387.5,287.5 Z"/></g>
<g><path style="opacity:0.871" fill="#9cb7e7" d="M 111.5,287.5 C 114.857,287.216 117.191,288.549 118.5,291.5C 115.669,290.921 113.336,289.588 111.5,287.5 Z"/></g>
<g><path style="opacity:0.996" fill="#5888d7" d="M 218.5,285.5 C 219.5,286.167 220.5,286.833 221.5,287.5C 222.08,289.749 223.413,291.415 225.5,292.5C 226.674,293.514 227.34,294.847 227.5,296.5C 228.292,302.13 228.625,307.797 228.5,313.5C 228.5,313.833 228.5,314.167 228.5,314.5C 227.833,314.5 227.167,314.5 226.5,314.5C 227.209,308.542 227.042,302.542 226,296.5C 224.374,293.872 222.374,291.539 220,289.5C 219.209,288.255 218.709,286.922 218.5,285.5 Z"/></g>
<g><path style="opacity:0.298" fill="#a5c6f3" d="M 221.5,287.5 C 223.587,288.585 224.92,290.251 225.5,292.5C 223.413,291.415 222.08,289.749 221.5,287.5 Z"/></g>
<g><path style="opacity:1" fill="#eec440" d="M 382.5,290.5 C 380.434,292.199 378.1,293.532 375.5,294.5C 373.326,294.75 371.659,295.75 370.5,297.5C 369.833,297.5 369.167,297.5 368.5,297.5C 368.5,296.5 368.5,295.5 368.5,294.5C 372.953,292.573 377.619,291.24 382.5,290.5 Z"/></g>
<g><path style="opacity:1" fill="#618fe2" d="M 118.5,291.5 C 121.237,292.213 123.904,292.213 126.5,291.5C 127.262,292.628 127.929,293.795 128.5,295C 131.362,296.93 134.362,298.597 137.5,300C 139.235,300.651 140.902,300.485 142.5,299.5C 143.604,300.631 143.271,301.465 141.5,302C 142.756,302.417 143.423,303.25 143.5,304.5C 142.5,304.5 141.5,304.5 140.5,304.5C 140.027,303.094 139.027,302.427 137.5,302.5C 135.847,302.34 134.514,301.674 133.5,300.5C 133.027,299.094 132.027,298.427 130.5,298.5C 126.465,296.152 122.465,293.818 118.5,291.5 Z"/></g>
<g><path style="opacity:0.22" fill="#faeb9e" d="M 375.5,294.5 C 374.341,296.25 372.674,297.25 370.5,297.5C 371.659,295.75 373.326,294.75 375.5,294.5 Z"/></g>
<g><path style="opacity:0.78" fill="#f0d16d" d="M 277.5,287.5 C 277.657,288.873 277.49,290.207 277,291.5C 272.008,297.18 270.174,303.846 271.5,311.5C 270.518,308.038 270.185,304.371 270.5,300.5C 271.529,295.371 273.862,291.037 277.5,287.5 Z"/></g>
<g><path style="opacity:0.91" fill="#f5db82" d="M 368.5,297.5 C 369.167,297.5 369.833,297.5 370.5,297.5C 368.664,299.588 366.331,300.921 363.5,301.5C 364.444,299.312 366.111,297.979 368.5,297.5 Z"/></g>
<g><path style="opacity:0.082" fill="#d4edfe" d="M 130.5,298.5 C 132.027,298.427 133.027,299.094 133.5,300.5C 131.973,300.573 130.973,299.906 130.5,298.5 Z"/></g>
<g><path style="opacity:0.102" fill="#c5dffb" d="M 227.5,296.5 C 229.019,299.526 229.685,302.859 229.5,306.5C 229.497,309.025 229.163,311.359 228.5,313.5C 228.625,307.797 228.292,302.13 227.5,296.5 Z"/></g>
<g><path style="opacity:0.094" fill="#d4e7fe" d="M 137.5,302.5 C 139.027,302.427 140.027,303.094 140.5,304.5C 138.973,304.573 137.973,303.906 137.5,302.5 Z"/></g>
<g><path style="opacity:0.929" fill="#f1d36a" d="M 361.5,302.5 C 359.178,304.664 356.511,306.331 353.5,307.5C 352.833,307.5 352.167,307.5 351.5,307.5C 353.928,304.362 357.261,302.695 361.5,302.5 Z"/></g>
<g><path style="opacity:0.89" fill="#93b0e4" d="M 140.5,304.5 C 141.5,304.5 142.5,304.5 143.5,304.5C 144.833,305.167 145.833,306.167 146.5,307.5C 144.456,306.492 142.456,305.492 140.5,304.5 Z"/></g>
<g><path style="opacity:0.137" fill="#fffcc6" d="M 270.5,300.5 C 270.185,304.371 270.518,308.038 271.5,311.5C 271.5,312.5 271.5,313.5 271.5,314.5C 269.953,312.193 269.287,309.527 269.5,306.5C 269.505,304.304 269.838,302.304 270.5,300.5 Z"/></g>
<g><path style="opacity:0.184" fill="#c5ddf9" d="M 146.5,307.5 C 147.167,307.5 147.833,307.5 148.5,307.5C 148.833,308.167 149.167,308.833 149.5,309.5C 147.973,309.573 146.973,308.906 146.5,307.5 Z"/></g>
<g><path style="opacity:0.004" fill="#fff8d5" d="M 351.5,307.5 C 352.167,307.5 352.833,307.5 353.5,307.5C 353.027,308.906 352.027,309.573 350.5,309.5C 350.5,309.167 350.5,308.833 350.5,308.5C 351.167,308.5 351.5,308.167 351.5,307.5 Z"/></g>
<g><path style="opacity:1" fill="#f4cc5b" d="M 350.5,308.5 C 350.5,308.833 350.5,309.167 350.5,309.5C 345.949,312.943 340.949,315.61 335.5,317.5C 336.344,315.241 338.011,314.241 340.5,314.5C 340.343,313.127 340.51,311.793 341,310.5C 341.414,310.957 341.914,311.291 342.5,311.5C 344.81,309.588 347.477,308.588 350.5,308.5 Z"/></g>
<g><path style="opacity:1" fill="#6790df" d="M 148.5,307.5 C 153.187,309.485 157.853,311.651 162.5,314C 163.337,315.011 163.67,316.178 163.5,317.5C 161.847,317.34 160.514,316.674 159.5,315.5C 159.027,314.094 158.027,313.427 156.5,313.5C 156.027,312.094 155.027,311.427 153.5,311.5C 151.938,311.267 150.605,310.6 149.5,309.5C 149.167,308.833 148.833,308.167 148.5,307.5 Z"/></g>
<g><path style="opacity:0.094" fill="#c5d5f8" d="M 153.5,311.5 C 155.027,311.427 156.027,312.094 156.5,313.5C 154.973,313.573 153.973,312.906 153.5,311.5 Z"/></g>
<g><path style="opacity:0.078" fill="#d8ebfe" d="M 156.5,313.5 C 158.027,313.427 159.027,314.094 159.5,315.5C 157.973,315.573 156.973,314.906 156.5,313.5 Z"/></g>
<g><path style="opacity:0.973" fill="#91b1e8" d="M 165.5,318.5 C 169.779,318.971 173.112,320.971 175.5,324.5C 171.827,323 168.494,321 165.5,318.5 Z"/></g>
<g><path style="opacity:0.957" fill="#8bace3" d="M 226.5,314.5 C 227.167,314.5 227.833,314.5 228.5,314.5C 227.083,319.679 224.417,324.012 220.5,327.5C 220.5,325.833 220.5,324.167 220.5,322.5C 221.5,322.5 222.5,322.5 223.5,322.5C 224.412,319.724 225.412,317.057 226.5,314.5 Z"/></g>
<g><path style="opacity:0.047" fill="#fae095" d="M 335.5,317.5 C 331.997,320.667 327.997,323 323.5,324.5C 327.011,321.322 331.011,318.988 335.5,317.5 Z"/></g>
<g><path style="opacity:0.059" fill="#fde3ac" d="M 273.5,319.5 C 275.218,321.223 276.551,323.223 277.5,325.5C 274.956,324.292 273.622,322.292 273.5,319.5 Z"/></g>
<g><path style="opacity:0.067" fill="#d7ecfb" d="M 175.5,324.5 C 177.027,324.427 178.027,325.094 178.5,326.5C 176.973,326.573 175.973,325.906 175.5,324.5 Z"/></g>
<g><path style="opacity:0.231" fill="#fbe9a6" d="M 277.5,325.5 C 278.833,325.5 279.5,326.167 279.5,327.5C 278.167,327.5 277.5,326.833 277.5,325.5 Z"/></g>
<g><path style="opacity:0.965" fill="#f4d878" d="M 323.5,324.5 C 320.867,327.111 317.867,329.278 314.5,331C 313.552,331.483 312.552,331.649 311.5,331.5C 314.525,327.649 318.525,325.316 323.5,324.5 Z"/></g>
<g><path style="opacity:0.878" fill="#a0baea" d="M 182.5,328.5 C 186.535,329.351 190.202,331.017 193.5,333.5C 189.164,333.163 185.497,331.496 182.5,328.5 Z"/></g>
<g><path style="opacity:0.318" fill="#fcedae" d="M 279.5,327.5 C 281.749,328.08 283.415,329.413 284.5,331.5C 282.251,330.92 280.585,329.587 279.5,327.5 Z"/></g>
<g><path style="opacity:0.886" fill="#f0d679" d="M 311.5,331.5 C 310.22,332.931 308.553,333.598 306.5,333.5C 307.552,331.744 309.219,331.077 311.5,331.5 Z"/></g>
<g><path style="opacity:0.776" fill="#f2d782" d="M 284.5,331.5 C 291.743,333.032 299.076,333.698 306.5,333.5C 298.91,336.408 291.577,335.742 284.5,331.5 Z"/></g>
</svg>
