<svg width="56" height="56" viewBox="0 0 56 56" fill="none" xmlns="http://www.w3.org/2000/svg">
  <g clip-path="url(#clip0)">
    <!-- Red segment -->
    <path d="M14 20h16c3.314 0 6 2.686 6 6s-2.686 6-6 6H14c-3.314 0-6-2.686-6-6s2.686-6 6-6z" fill="#EA4335"/>
    <!-- Blue segment -->
    <path d="M14 20h16c3.314 0 6 2.686 6 6s-2.686 6-6 6H14c-3.314 0-6-2.686-6-6s2.686-6 6-6z" fill="#4285F4" transform="rotate(45 28 28)"/>
    <!-- Green segment -->
    <path d="M26 14h16c3.314 0 6 2.686 6 6s-2.686 6-6 6H26c-3.314 0-6-2.686-6-6s2.686-6 6-6z" fill="#34A853"/>
    <!-- Yellow segment -->
    <path d="M26 36h16c3.314 0 6 2.686 6 6s-2.686 6-6 6H26c-3.314 0-6-2.686-6-6s2.686-6 6-6z" fill="#FBBC04"/>
  </g>
  <defs>
    <clipPath id="clip0">
      <rect width="56" height="56" fill="white"/>
    </clipPath>
  </defs>
</svg>